<svg xmlns="http://www.w3.org/2000/svg" version="1.1" viewBox="0 0 47.5 47.5" style="enable-background:new 0 0 47.5 47.5" id="svg2" xml:space="preserve"><defs id="defs6"><clipPath id="clipPath18"><path d="M0 38h38V0H0v38z" id="path20"/></clipPath></defs><g transform="matrix(1.25 0 0 -1.25 0 47.5)" id="g12"><g id="g14"><g clip-path="url('#clipPath18')" id="g16"><g transform="translate(36 20)" id="g22"><path d="M0 0c0-9.389-7.611-17-17-17-9.388 0-17 7.611-17 17 0 9.388 7.612 17 17 17C-7.611 17 0 9.388 0 0" id="path24" style="fill:#ffcc4d;fill-opacity:1;fill-rule:nonzero;stroke:none"/></g><g transform="translate(29.457 20.203)" id="g26"><path d="M0 0c-.06.135-1.499 3.297-4.457 3.297C-7.414 3.297-8.854.135-8.914 0a.499.499 0 0 1 .144-.591.504.504 0 0 1 .611-.014c.012.009 1.262.902 3.702.902 2.426 0 3.674-.881 3.702-.901a.496.496 0 0 1 .609.01A.5.5 0 0 1 0 0" id="path28" style="fill:#664500;fill-opacity:1;fill-rule:nonzero;stroke:none"/></g><g transform="translate(17.457 20.203)" id="g30"><path d="M0 0c-.06.135-1.499 3.297-4.457 3.297C-7.414 3.297-8.854.135-8.914 0a.499.499 0 0 1 .754-.605c.013.009 1.262.902 3.703.902 2.426 0 3.674-.881 3.702-.901a.496.496 0 0 1 .609.01A.5.5 0 0 1 0 0" id="path32" style="fill:#664500;fill-opacity:1;fill-rule:nonzero;stroke:none"/></g><g transform="translate(32 22)" id="g34"><path d="M0 0c-.396 0-.772.238-.929.629C-2.707 5.074-7.151 6.01-7.196 6.02a.999.999 0 1 0 .392 1.96c.226-.044 5.556-1.168 7.733-6.608A1 1 0 0 0 0 0" id="path36" style="fill:#664500;fill-opacity:1;fill-rule:nonzero;stroke:none"/></g><g transform="translate(6 22)" id="g38"><path d="M0 0a1 1 0 0 0-.928 1.372c2.176 5.44 7.507 6.564 7.732 6.608A1 1 0 0 0 7.2 6.02C7.015 5.982 2.693 5.04.929.629A1.001 1.001 0 0 0 0 0" id="path40" style="fill:#664500;fill-opacity:1;fill-rule:nonzero;stroke:none"/></g><g transform="translate(19 16)" id="g42"><path d="M0 0c-3.623 0-6.027.422-9 1-.679.131-2 0-2-2 0-4 4.595-9 11-9 6.404 0 11 5 11 9 0 2-1.321 2.132-2 2C6.027.422 3.623 0 0 0" id="path44" style="fill:#664500;fill-opacity:1;fill-rule:nonzero;stroke:none"/></g><g transform="translate(10 15)" id="g46"><path d="M0 0s3-1 9-1 9 1 9 1-2-4-9-4-9 4-9 4" id="path48" style="fill:#fff;fill-opacity:1;fill-rule:nonzero;stroke:none"/></g><g transform="translate(11.847 9.77)" id="g50"><path d="M0 0a5 5 0 0 0-6.077-3.615 4.998 4.998 0 0 0-3.615 6.076c.679 2.677 6.337 8.708 7.307 8.462C-1.417 10.677.679 2.677 0 0" id="path52" style="fill:#5dadec;fill-opacity:1;fill-rule:nonzero;stroke:none"/></g><g transform="translate(26.133 9.77)" id="g54"><path d="M0 0a5 5 0 0 1 6.077-3.615 4.998 4.998 0 0 1 3.616 6.076c-.679 2.677-6.338 8.708-7.307 8.462C1.417 10.677-.679 2.677 0 0" id="path56" style="fill:#5dadec;fill-opacity:1;fill-rule:nonzero;stroke:none"/></g></g></g></g></svg>